<svg xmlns="http://www.w3.org/2000/svg" version="1.1" xmlns:xlink="http://www.w3.org/1999/xlink" xmlns:svgjs="http://svgjs.dev/svgjs" width="1000" height="194" viewBox="0 0 1000 194"><g transform="matrix(1,0,0,1,-0.6060600130135185,-0.05724525389486246)"><svg viewBox="0 0 396 77" data-background-color="#ffffff" preserveAspectRatio="xMidYMid meet" height="194" width="1000" xmlns="http://www.w3.org/2000/svg" xmlns:xlink="http://www.w3.org/1999/xlink"><g id="tight-bounds" transform="matrix(1,0,0,1,0.24000023484668986,0.022721054380951955)"><svg viewBox="0 0 395.5199999999999 76.95455789123808" height="76.95455789123808" width="395.5199999999999"><g><svg viewBox="0 0 597.9943139882599 116.34907983020014" height="76.95455789123808" width="395.5199999999999"><g><rect width="7.5922431919955375" height="101.02669739235901" x="175.00708861826564" y="7.661191218920564" fill="#e7414d" opacity="1" stroke-width="0" stroke="transparent" fill-opacity="1" class="rect-o-0" data-fill-palette-color="primary" rx="1%" id="o-0" data-palette-color="#e7414d"></rect></g><g transform="matrix(1,0,0,1,202.47431398825998,16.080082668283815)"><svg viewBox="0 0 395.52 84.18891449363251" height="84.18891449363251" width="395.52"><g id="textblocktransform"><svg viewBox="0 0 395.52 84.18891449363251" height="84.18891449363251" width="395.52" id="textblock"><g><svg viewBox="0 0 395.52 84.18891449363251" height="84.18891449363251" width="395.52"><g transform="matrix(1,0,0,1,0,0)"><svg width="395.52" viewBox="2.200000047683716 -35 164.8800048828125 35.099998474121094" height="84.18891449363251" data-palette-color="#e7414d"><path d="M5.5 0L2.2 0 2.2-34.2Q2.2-34.2 2.33-34.6 2.45-35 3.05-35L3.05-35 15.05-35Q15.05-33.35 15-32.63 14.95-31.9 14.8-31.7 14.65-31.5 14.3-31.5L14.3-31.5 6.25-31.5 6.25-0.8Q6.25-0.8 6.2-0.4 6.15 0 5.5 0L5.5 0ZM13.05-17.2L2.75-17.2 2.75-20.9 13.8-20.9Q13.8-18.6 13.7-17.9 13.6-17.2 13.05-17.2L13.05-17.2ZM29.65 0L17.75 0 17.75-33.85Q17.75-34.4 17.95-34.65 18.15-34.9 19-34.95 19.85-35 21.85-35L21.85-35 21.85-3.8 30.45-3.8 30.45-0.8Q30.45-0.3 30.22-0.15 30 0 29.65 0L29.65 0ZM45.34 0L33.5 0 33.5-34.2Q33.5-34.2 33.62-34.6 33.75-35 34.34-35L34.34-35 46.34-35Q46.34-33.35 46.3-32.6 46.25-31.85 46.09-31.6 45.95-31.35 45.59-31.35L45.59-31.35 37.55-31.35 37.55-3.65 46.15-3.65Q46.15-1.95 46.09-1.18 46.05-0.4 45.9-0.2 45.75 0 45.34 0L45.34 0ZM44.34-17.2L34.05-17.2 34.05-20.9 45.09-20.9Q45.09-18.6 45-17.9 44.9-17.2 44.34-17.2L44.34-17.2ZM51.24 0L47.74 0 55.79-19.1 57.99-20.55Q57.99-20.55 58.37-21.88 58.74-23.2 59.42-25.25 60.09-27.3 60.84-29.35L60.84-29.35 62.74-34.35Q62.89-34.65 63.07-34.8 63.24-34.95 64.14-34.98 65.04-35 67.14-35L67.14-35 59.84-16.25 58.19-15.75Q58.19-15.75 57.72-14.38 57.24-13 56.52-10.93 55.79-8.85 54.89-6.75L54.89-6.75 52.14-0.5Q51.84 0 51.24 0L51.24 0ZM67.44 0L63.04 0 60.29-6.75Q59.49-8.85 58.77-10.93 58.04-13 57.57-14.38 57.09-15.75 57.09-15.75L57.09-15.75 55.74-17.15 49.09-34.3Q48.94-34.65 49.17-34.8 49.39-34.95 50.44-34.98 51.49-35 53.84-35L53.84-35 55.89-29.35Q56.69-27.25 57.32-25.23 57.94-23.2 58.34-21.88 58.74-20.55 58.74-20.55L58.74-20.55 60.14-19.7 67.84-0.7Q68.04-0.4 67.94-0.2 67.84 0 67.44 0L67.44 0ZM73.99 0L70.69 0 70.69-34.2Q70.69-34.2 70.82-34.6 70.94-35 71.54-35L71.54-35 83.54-35Q83.54-33.35 83.49-32.63 83.44-31.9 83.29-31.7 83.14-31.5 82.79-31.5L82.79-31.5 74.74-31.5 74.74-0.8Q74.74-0.8 74.69-0.4 74.64 0 73.99 0L73.99 0ZM81.54-17.2L71.24-17.2 71.24-20.9 82.29-20.9Q82.29-18.6 82.19-17.9 82.09-17.2 81.54-17.2L81.54-17.2ZM86.24 0L86.24 0 86.24-33.15Q86.24-34.1 86.44-34.48 86.64-34.85 87.51-34.93 88.39-35 90.39-35L90.39-35 90.39-0.8Q90.39-0.4 90.19-0.25 89.99-0.1 89.16-0.05 88.34 0 86.24 0ZM111.74 0L108.74 0 102.99-13.75Q102.69-14.55 102.16-16.03 101.64-17.5 101.04-19.35 100.44-21.2 99.81-23.08 99.19-24.95 98.66-26.55 98.14-28.15 97.84-29.13 97.54-30.1 97.54-30.1L97.54-30.1 95.24-32.6 95.54-35 98.64-35 104.24-21.5Q104.59-20.65 105.11-19.13 105.64-17.6 106.24-15.78 106.84-13.95 107.44-12.13 108.04-10.3 108.54-8.75 109.04-7.2 109.36-6.28 109.69-5.35 109.69-5.35L109.69-5.35 112.14-2.4 111.74 0ZM94.69 0L94.69 0 94.69-34.2Q94.69-35 95.54-35L95.54-35 98.74-34.2 98.19-28.35Q98.29-27.65 98.36-26.4 98.44-25.15 98.49-23.63 98.54-22.1 98.59-20.45 98.64-18.8 98.69-17.3 98.74-15.8 98.74-14.65 98.74-13.5 98.74-12.95L98.74-12.95 98.74-0.8Q98.74-0.4 98.56-0.25 98.39-0.1 97.56-0.05 96.74 0 94.69 0ZM111.74 0L111.74 0 108.54-0.8 108.99-7.5Q108.89-8.25 108.84-9.47 108.79-10.7 108.74-12.18 108.69-13.65 108.64-15.2 108.59-16.75 108.56-18.18 108.54-19.6 108.54-20.7 108.54-21.8 108.54-22.4L108.54-22.4 108.54-34.2Q108.54-34.6 108.71-34.75 108.89-34.9 109.74-34.95 110.59-35 112.59-35L112.59-35 112.59-0.8Q112.59 0 111.74 0ZM122.68 0L116.43 0 116.43-34.05Q116.43-34.5 116.71-34.75 116.98-35 117.78-35L117.78-35 122.63-35Q125.08-35 126.93-34.25 128.78-33.5 129.98-31.73 131.18-29.95 131.81-26.9 132.43-23.85 132.43-19.3L132.43-19.3Q132.43-13.8 131.78-10.08 131.13-6.35 129.86-4.15 128.58-1.95 126.78-0.98 124.98 0 122.68 0L122.68 0ZM120.48-31.25L120.48-3.85 122.73-3.85Q123.73-3.85 124.63-4.4 125.53-4.95 126.26-6.58 126.98-8.2 127.41-11.35 127.83-14.5 127.83-19.7L127.83-19.7Q127.83-23.15 127.51-25.4 127.18-27.65 126.56-28.95 125.93-30.25 124.98-30.75 124.03-31.25 122.78-31.25L122.78-31.25 120.48-31.25ZM147.63 0L135.78 0 135.78-34.2Q135.78-34.2 135.91-34.6 136.03-35 136.63-35L136.63-35 148.63-35Q148.63-33.35 148.58-32.6 148.53-31.85 148.38-31.6 148.23-31.35 147.88-31.35L147.88-31.35 139.83-31.35 139.83-3.65 148.43-3.65Q148.43-1.95 148.38-1.18 148.33-0.4 148.18-0.2 148.03 0 147.63 0L147.63 0ZM146.63-17.2L136.33-17.2 136.33-20.9 147.38-20.9Q147.38-18.6 147.28-17.9 147.18-17.2 146.63-17.2L146.63-17.2ZM157.58-14.2L153.13-14.2Q152.38-14.2 152.33-14.45 152.28-14.7 152.28-15.3L152.28-15.3 152.28-34.05Q152.28-34.2 152.3-34.6 152.33-35 152.88-35L152.88-35 157.53-35Q160.68-35 162.73-33.98 164.78-32.95 165.75-30.78 166.73-28.6 166.73-25.1L166.73-25.1Q166.73-22 166-19.93 165.28-17.85 164-16.6 162.73-15.35 161.08-14.78 159.43-14.2 157.58-14.2L157.58-14.2ZM151.73 0L151.73 0 151.73-34.2Q151.73-34.2 151.85-34.6 151.98-35 152.58-35L152.58-35 154.98-35Q155.58-35 155.68-34.6 155.78-34.2 155.78-34.2L155.78-34.2 155.78-0.8Q155.78-0.4 155.6-0.25 155.43-0.1 154.58-0.05 153.73 0 151.73 0ZM165.03 0.1L165.03 0.1Q164.58 0.1 163.95 0.08 163.33 0.05 162.63 0L162.63 0Q162.38-4.3 161.6-7.23 160.83-10.15 159.95-11.88 159.08-13.6 158.43-14.35 157.78-15.1 157.78-15.1L157.78-15.1Q157.78-15.1 157.68-15.4 157.58-15.7 158.08-16L158.08-16 160.28-17.2Q160.88-17.2 161.13-16.75L161.13-16.75Q161.13-16.75 161.93-15.85 162.73-14.95 163.83-13.03 164.93-11.1 165.88-8.1 166.83-5.1 167.08-0.9L167.08-0.9Q167.08-0.35 166.78-0.13 166.48 0.1 165.03 0.1ZM155.68-31.45L155.68-17.95 157.98-17.95Q159.38-17.95 160.3-18.68 161.23-19.4 161.73-21.03 162.23-22.65 162.23-25.3L162.23-25.3Q162.23-27.2 161.88-28.6 161.53-30 160.65-30.73 159.78-31.45 158.28-31.45L158.28-31.45 155.68-31.45Z" opacity="1" transform="matrix(1,0,0,1,0,0)" fill="#e7414d" class="undefined-text-0" data-fill-palette-color="primary" id="text-0"></path></svg></g></svg></g></svg></g></svg></g><g><svg viewBox="0 0 155.13210644026685 116.34907983020014" height="116.34907983020014" width="155.13210644026685"><g><svg xmlns="http://www.w3.org/2000/svg" xmlns:xlink="http://www.w3.org/1999/xlink" version="1.1" x="0" y="0" viewBox="11.291000366210938 20 80 60" enable-background="new 0 0 100 100" xml:space="preserve" height="116.34907983020014" width="155.13210644026685" class="icon-icon-0" data-fill-palette-color="accent" id="icon-0"><path d="M11.291 20v10 50h80V30 20H11.291zM83.691 23.656c0-0.486 0.395-0.881 0.881-0.881h2.77c0.486 0 0.881 0.395 0.881 0.881v2.771c0 0.486-0.395 0.881-0.881 0.881h-2.77c-0.486 0-0.881-0.395-0.881-0.881V23.656zM76.158 23.656c0-0.486 0.395-0.881 0.881-0.881h2.77c0.486 0 0.883 0.395 0.883 0.881v2.771c0 0.486-0.396 0.881-0.883 0.881h-2.77c-0.486 0-0.881-0.395-0.881-0.881V23.656zM68.625 23.656c0-0.486 0.395-0.881 0.881-0.881h2.771c0.484 0 0.881 0.395 0.881 0.881v2.771c0 0.486-0.396 0.881-0.881 0.881h-2.771c-0.486 0-0.881-0.395-0.881-0.881V23.656zM89.291 78h-76V30h76V78z" fill="#add8e6" data-fill-palette-color="accent"></path><g fill="#add8e6" data-fill-palette-color="accent"><rect x="19.563" y="37.518" width="12.746" height="12.747" fill="#add8e6" data-fill-palette-color="accent"></rect><rect x="36.778" y="37.518" width="12.746" height="12.747" fill="#add8e6" data-fill-palette-color="accent"></rect><rect x="53.992" y="37.518" width="12.746" height="12.747" fill="#add8e6" data-fill-palette-color="accent"></rect><rect x="71.207" y="37.434" width="12.746" height="12.747" fill="#add8e6" data-fill-palette-color="accent"></rect><rect x="19.569" y="57.544" width="12.746" height="12.747" fill="#add8e6" data-fill-palette-color="accent"></rect><rect x="36.785" y="57.544" width="12.745" height="12.747" fill="#add8e6" data-fill-palette-color="accent"></rect><rect x="53.998" y="57.544" width="12.746" height="12.747" fill="#add8e6" data-fill-palette-color="accent"></rect></g></svg></g></svg></g></svg></g><defs></defs></svg><rect width="395.5199999999999" height="76.95455789123808" fill="none" stroke="none" visibility="hidden"></rect></g></svg></g></svg>